<svg width="115" height="30" viewBox="0 0 115 30" fill="none" xmlns="http://www.w3.org/2000/svg">
<path d="M16.3031 18.8426C16.2825 18.8221 16.2666 18.797 16.2483 18.7765C15.0846 19.5431 13.6927 19.9904 12.1959 19.9904C8.12301 19.9904 4.82133 16.6887 4.82133 12.6158C4.82133 8.54285 8.12301 5.24117 12.1959 5.24117C16.2688 5.24117 19.5705 8.54285 19.5705 12.6158C19.5705 14.1126 19.1233 15.5067 18.3566 16.6681C18.3794 16.6864 18.4023 16.7024 18.4228 16.7229L21.3708 19.6709C23.0935 17.4941 24.2207 15.0549 24.2207 12.1115C24.2207 5.4237 18.7993 0 12.1115 0C5.42371 0 0 5.42142 0 12.1115C0 16.011 2.07867 19.0663 4.70496 21.6948L12.2324 29.8156L19.3652 21.907L16.3031 18.8426Z" fill="#A6CD39"/>
<path d="M12.196 7.79639C9.53548 7.79639 7.37695 9.95492 7.37695 12.6154C7.37695 15.276 9.53548 17.4345 12.196 17.4345C14.8565 17.4345 17.015 15.2782 17.015 12.6154C17.015 9.95264 14.8588 7.79639 12.196 7.79639ZM13.8959 12.9258C12.8645 12.9258 12.0271 12.0883 12.0271 11.057C12.0271 10.0257 12.8645 9.18825 13.8959 9.18825C14.9272 9.18825 15.7646 10.0257 15.7646 11.057C15.7646 12.0883 14.9272 12.9258 13.8959 12.9258Z" fill="#A6CD39"/>
<path d="M28.2481 18.8903C28.1728 18.8287 28.0952 18.7237 28.0952 18.5868C28.0952 18.3746 28.2778 18.1921 28.49 18.1921C28.5972 18.1921 28.6885 18.2377 28.7478 18.2833C29.8111 19.2417 30.8767 19.6661 32.3347 19.6661C33.9296 19.6661 35.0249 18.7693 35.0249 17.5532V17.5235C35.0249 16.3986 34.4316 15.746 32.0153 15.2577C29.462 14.7398 28.4284 13.875 28.4284 12.2641V12.2344C28.4284 10.6532 29.8727 9.43701 31.8487 9.43701C33.2771 9.43701 34.2651 9.8021 35.2394 10.5323C35.3147 10.5939 35.4059 10.6988 35.4059 10.8517C35.4059 11.0639 35.2234 11.2464 35.0112 11.2464C34.9199 11.2464 34.8286 11.2168 34.7533 11.1552C33.827 10.441 32.8983 10.1512 31.819 10.1512C30.2537 10.1512 29.2201 11.0479 29.2201 12.1569V12.1865C29.2201 13.3114 29.7974 13.9959 32.321 14.5116C34.783 15.0136 35.8166 15.8944 35.8166 17.4459V17.4756C35.8166 19.1938 34.3426 20.378 32.2891 20.378C30.6964 20.3803 29.4506 19.8783 28.2481 18.8903Z" fill="white"/>
<path d="M38.3971 9.93038C38.3971 9.71818 38.5797 9.53564 38.7919 9.53564H38.8672C39.0337 9.53564 39.157 9.62691 39.2619 9.76382L43.4124 15.8743L47.5629 9.76382C47.6542 9.62691 47.7911 9.53564 47.9577 9.53564H48.0329C48.2452 9.53564 48.4277 9.71818 48.4277 9.93038V19.8879C48.4277 20.1001 48.2452 20.2827 48.0329 20.2827C47.8207 20.2827 47.6382 20.1001 47.6382 19.8879V10.98L43.7319 16.6638C43.6406 16.8007 43.5333 16.8623 43.3964 16.8623C43.2595 16.8623 43.1523 16.8007 43.061 16.6638L39.1547 10.98V19.9039C39.1547 20.1161 38.9881 20.2849 38.7736 20.2849C38.5614 20.2849 38.3926 20.1184 38.3926 19.9039V9.93038H38.3971Z" fill="white"/>
<path d="M50.7413 19.7348L55.2865 9.88447C55.3938 9.6563 55.5444 9.50342 55.8182 9.50342H55.8478C56.1216 9.50342 56.2722 9.6563 56.3795 9.88447L60.9087 19.7051C60.9544 19.7964 60.9704 19.8717 60.9704 19.9492C60.9704 20.1478 60.8038 20.3143 60.5893 20.3143C60.4068 20.3143 60.2699 20.1774 60.1946 20.0108L58.9487 17.275L55.8182 10.4047L51.4258 20.0268C51.3505 20.2094 51.2273 20.3166 51.0448 20.3166C50.8463 20.3166 50.6797 20.1637 50.6797 19.9812C50.6797 19.9173 50.6957 19.826 50.7413 19.7348Z" fill="white"/>
<path d="M63.2269 9.95285C63.2269 9.74065 63.4094 9.55811 63.6216 9.55811H67.6946C69.002 9.55811 70.0516 9.96882 70.6882 10.6077C71.1902 11.1097 71.4937 11.8239 71.4937 12.5837V12.6134C71.4937 14.3908 70.1702 15.4108 68.3768 15.6526L71.4024 19.575C71.4777 19.6662 71.5233 19.7575 71.5233 19.8488C71.5233 20.061 71.3248 20.2595 71.1126 20.2595C70.9597 20.2595 70.8548 20.1682 70.7635 20.0473L67.496 15.7918H64.0141V19.8647C64.0141 20.077 63.8316 20.2595 63.6194 20.2595C63.4072 20.2595 63.2246 20.077 63.2246 19.8647V9.95285H63.2269ZM67.6056 15.0754C69.383 15.0754 70.7065 14.1786 70.7065 12.643V12.6134C70.7065 11.185 69.5816 10.2883 67.6512 10.2883H64.0187V15.0776H67.6056V15.0754Z" fill="white"/>
<path d="M76.694 10.2883H73.2896C73.0911 10.2883 72.9246 10.1217 72.9246 9.92319C72.9246 9.72467 73.0911 9.55811 73.2896 9.55811H80.8901C81.0886 9.55811 81.2552 9.72467 81.2552 9.92319C81.2552 10.1217 81.0886 10.2883 80.8901 10.2883H77.4858V19.8647C77.4858 20.077 77.3032 20.2595 77.091 20.2595C76.8788 20.2595 76.6963 20.077 76.6963 19.8647V10.2883H76.694Z" fill="white"/>
<path d="M94.8406 14.9385V14.9088C94.8406 12.0361 96.9238 9.40527 100.1 9.40527C101.695 9.40527 102.745 9.84565 103.733 10.5918C103.824 10.6671 103.885 10.7743 103.885 10.9112C103.885 11.1234 103.703 11.306 103.491 11.306C103.429 11.306 103.338 11.2763 103.247 11.1987C102.425 10.5598 101.528 10.1195 100.054 10.1195C97.4691 10.1195 95.662 12.3076 95.662 14.8769V14.9088C95.662 17.6606 97.3802 19.7119 100.223 19.7119C101.576 19.7119 102.838 19.1506 103.614 18.4957V15.4405H100.301C100.102 15.4405 99.9357 15.2739 99.9357 15.0754C99.9357 14.8769 100.102 14.7103 100.301 14.7103H103.979C104.191 14.7103 104.374 14.8929 104.374 15.1051V18.587C104.374 18.7399 104.266 18.9065 104.1 19.0434C103.096 19.8192 101.775 20.4124 100.194 20.4124C96.8325 20.4124 94.8406 17.9344 94.8406 14.9385Z" fill="white"/>
<path d="M107.294 19.8329V9.98263C107.294 9.77043 107.477 9.58789 107.689 9.58789H114.56C114.758 9.58789 114.925 9.75446 114.925 9.95297C114.925 10.1515 114.758 10.3181 114.56 10.3181H108.084V14.4982H113.875C114.074 14.4982 114.24 14.6648 114.24 14.8633C114.24 15.0618 114.074 15.2284 113.875 15.2284H108.084V19.4998H114.635C114.833 19.4998 115 19.6664 115 19.8649C115 20.0634 114.833 20.23 114.635 20.23H107.687C107.477 20.23 107.294 20.0474 107.294 19.8329Z" fill="white"/>
<path d="M83.5804 19.7348L88.1256 9.88447C88.2329 9.6563 88.3835 9.50342 88.6573 9.50342H88.687C88.9608 9.50342 89.1114 9.6563 89.2186 9.88447L93.7479 19.7051C93.7935 19.7964 93.8095 19.8717 93.8095 19.9492C93.8095 20.1478 93.6429 20.3143 93.4284 20.3143C93.2459 20.3143 93.109 20.1774 93.0337 20.0108L91.7878 17.275L88.6573 10.4047L84.2649 20.0268C84.1896 20.2094 84.0664 20.3166 83.8839 20.3166C83.6854 20.3166 83.5188 20.1637 83.5188 19.9812C83.5211 19.9173 83.5348 19.826 83.5804 19.7348Z" fill="white"/>
</svg>
